<svg width="180" height="180" viewBox="0 0 180 180" fill="none" xmlns="http://www.w3.org/2000/svg">
  <!-- Background with gradient -->
  <rect width="180" height="180" rx="40" fill="url(#gradient)"/>
  
  <!-- Pixel Art "M" for Mirgab - larger version -->
  <rect x="30" y="45" width="12" height="90" fill="#ffffff"/>
  <rect x="42" y="45" width="12" height="12" fill="#ffffff"/>
  <rect x="54" y="57" width="12" height="12" fill="#ffffff"/>
  <rect x="66" y="69" width="12" height="12" fill="#60a5fa"/>
  <rect x="78" y="57" width="12" height="12" fill="#60a5fa"/>
  <rect x="90" y="45" width="12" height="12" fill="#60a5fa"/>
  <rect x="102" y="45" width="12" height="90" fill="#60a5fa"/>
  <rect x="126" y="45" width="12" height="90" fill="#a855f7"/>
  
  <!-- Pixel decorations -->
  <rect x="18" y="30" width="12" height="12" fill="#3b82f6" opacity="0.8"/>
  <rect x="150" y="30" width="12" height="12" fill="#ec4899" opacity="0.8"/>
  <rect x="18" y="138" width="12" height="12" fill="#8b5cf6" opacity="0.8"/>
  <rect x="150" y="138" width="12" height="12" fill="#3b82f6" opacity="0.8"/>
  
  <!-- Corner pixels -->
  <rect x="6" y="6" width="6" height="6" fill="#3b82f6" opacity="0.6"/>
  <rect x="168" y="6" width="6" height="6" fill="#ec4899" opacity="0.6"/>
  <rect x="6" y="168" width="6" height="6" fill="#8b5cf6" opacity="0.6"/>
  <rect x="168" y="168" width="6" height="6" fill="#3b82f6" opacity="0.6"/>
  
  <defs>
    <linearGradient id="gradient" x1="0%" y1="0%" x2="100%" y2="100%">
      <stop offset="0%" style="stop-color:#1e1b4b;stop-opacity:1" />
      <stop offset="50%" style="stop-color:#581c87;stop-opacity:1" />
      <stop offset="100%" style="stop-color:#1e1b4b;stop-opacity:1" />
    </linearGradient>
  </defs>
</svg>
